<svg xmlns="http://www.w3.org/2000/svg" xmlns:xlink="http://www.w3.org/1999/xlink" viewBox="0 0 390.7 338.39"><defs><style>.cls-1{opacity:0.5;}.cls-2{fill:url(#linear-gradient);}.cls-3{fill:url(#linear-gradient-2);}.cls-4{fill:url(#linear-gradient-3);}</style><linearGradient id="linear-gradient" x1="373.53" y1="305.35" x2="49.64" y2="-18.54" gradientUnits="userSpaceOnUse"><stop offset="0" stop-color="#ed1c24"/><stop offset="1" stop-color="#fbb03b"/></linearGradient><linearGradient id="linear-gradient-2" x1="243.85" y1="226.06" x2="165.45" y2="147.66" xlink:href="#linear-gradient"/><linearGradient id="linear-gradient-3" x1="226.15" y1="104.62" x2="147.62" y2="26.09" xlink:href="#linear-gradient"/></defs><g id="Layer_2" data-name="Layer 2"><g id="Layer_1-2" data-name="Layer 1"><g class="cls-1"><path class="cls-2" d="M220.85,254.33c-62-2.62-125.4,5.39-186.33-3.38-16.7-5.56-28.07-19.82-33.17-36.13-1.87-56.7-1.7-114.35-.1-171.13C3.37,22.21,23.14,4.09,44.18,1.33,142.48-1.52,242,1.22,340.71.44c8.49,0,16.5,2.8,23.88,7.45,26.8,14,27,43.25,25.71,69.64.35,40.81-.27,81.68.14,122.47,1.91,28.75-22.13,52.15-50,54.84v83.55C300.24,310.54,260.86,282.25,220.85,254.33Zm96.35,40.48V232.33c17,.15,36.45,2.1,46.68-14.21,9.39-55.07.52-114.94,3.47-171.53-.74-14.32-17.92-24.68-30.9-24.25q-126.48,0-253,0c-21.74.1-56.15-4.72-60.14,24.54,3.42,242.53-39,175.51,204.86,185.46C257.35,253.84,287.39,274,317.2,294.81Z"/></g><g class="cls-1"><path class="cls-3" d="M231.88,108.15c31.8-.79,59.43,31.28,52.85,62.46-2.79,23.41-23.75,42.54-46.91,45-43.62,1.31-87.9.24-131.74.42,8.62-12.18,17.57-24.23,26.87-35.91,38.72-.7,78.57,1.37,116.73-.73V144.15H205C213.25,131.74,223,120.09,231.88,108.15Z"/><path class="cls-4" d="M285.63,36.15l-27,36H141.83v36.1h44.83c-9.14,12.21-18,24.09-27,36-32,.45-59.68-31.43-52.91-62.9,3-22.42,22.44-41.36,44.62-44.45C195.92,34.9,240.89,36.77,285.63,36.15Z"/></g></g></g></svg>